<?xml version="1.0" encoding="UTF-8"?>
<svg id="Layer_1" data-name="Layer 1" xmlns="http://www.w3.org/2000/svg" xmlns:xlink="http://www.w3.org/1999/xlink" viewBox="0 0 843.76 842.68">
  <defs>
    <style>
      .cls-1 {
        clip-path: url(#clippath);
      }

      .cls-2 {
        fill: #375138;
      }

      .cls-2, .cls-3, .cls-4, .cls-5, .cls-6 {
        stroke-width: 0px;
      }

      .cls-3 {
        fill: none;
      }

      .cls-7 {
        stroke-width: 1.56px;
      }

      .cls-7, .cls-8 {
        stroke: #fff;
        stroke-miterlimit: 10;
      }

      .cls-7, .cls-5 {
        fill: #527853;
      }

      .cls-4, .cls-8 {
        fill: #ee7214;
      }

      .cls-9 {
        clip-path: url(#clippath-1);
      }

      .cls-10 {
        clip-path: url(#clippath-4);
      }

      .cls-11 {
        clip-path: url(#clippath-3);
      }

      .cls-12 {
        clip-path: url(#clippath-2);
      }

      .cls-13 {
        clip-path: url(#clippath-7);
      }

      .cls-14 {
        clip-path: url(#clippath-8);
      }

      .cls-15 {
        clip-path: url(#clippath-6);
      }

      .cls-16 {
        clip-path: url(#clippath-5);
      }

      .cls-17 {
        clip-path: url(#clippath-9);
      }

      .cls-18 {
        clip-path: url(#clippath-14);
      }

      .cls-19 {
        clip-path: url(#clippath-13);
      }

      .cls-20 {
        clip-path: url(#clippath-12);
      }

      .cls-21 {
        clip-path: url(#clippath-10);
      }

      .cls-22 {
        clip-path: url(#clippath-15);
      }

      .cls-23 {
        clip-path: url(#clippath-11);
      }

      .cls-8 {
        stroke-width: 2.01px;
      }

      .cls-6 {
        fill: #fff;
      }
    </style>
    <clipPath id="clippath">
      <rect class="cls-3" y="4.41" width="843.76" height="838.27"/>
    </clipPath>
    <clipPath id="clippath-1">
      <rect class="cls-3" x="0" y="4.41" width="843.76" height="838.27"/>
    </clipPath>
    <clipPath id="clippath-2">
      <rect class="cls-3" x="371.83" width="344.93" height="838.27"/>
    </clipPath>
    <clipPath id="clippath-3">
      <rect class="cls-3" x="85.73" width="496.95" height="838.27"/>
    </clipPath>
    <clipPath id="clippath-4">
      <polygon class="cls-3" points="32.87 95.98 711.49 51.39 757.65 724.93 79.03 769.51 32.87 95.98"/>
    </clipPath>
    <clipPath id="clippath-5">
      <polygon class="cls-3" points="32.87 95.98 711.49 51.39 757.65 724.93 79.03 769.51 32.87 95.98"/>
    </clipPath>
    <clipPath id="clippath-6">
      <polygon class="cls-3" points="32.87 95.98 711.49 51.39 757.65 724.93 79.03 769.51 32.87 95.98"/>
    </clipPath>
    <clipPath id="clippath-7">
      <polygon class="cls-3" points="32.87 95.98 711.49 51.39 757.65 724.93 79.03 769.51 32.87 95.98"/>
    </clipPath>
    <clipPath id="clippath-8">
      <polygon class="cls-3" points="32.87 95.98 711.49 51.39 757.65 724.93 79.03 769.51 32.87 95.98"/>
    </clipPath>
    <clipPath id="clippath-9">
      <polygon class="cls-3" points="32.87 95.98 711.49 51.39 757.65 724.93 79.03 769.51 32.87 95.98"/>
    </clipPath>
    <clipPath id="clippath-10">
      <polygon class="cls-3" points="685.14 117.62 159.02 152.19 194.81 674.39 720.92 639.82 685.14 117.62"/>
    </clipPath>
    <clipPath id="clippath-11">
      <polygon class="cls-3" points="685.14 117.62 159.02 152.19 194.81 674.39 720.92 639.82 685.14 117.62"/>
    </clipPath>
    <clipPath id="clippath-12">
      <polygon class="cls-3" points="685.14 117.62 159.02 152.19 194.81 674.39 720.92 639.82 685.14 117.62"/>
    </clipPath>
    <clipPath id="clippath-13">
      <polygon class="cls-3" points="685.14 117.62 159.02 152.19 194.81 674.39 720.92 639.82 685.14 117.62"/>
    </clipPath>
    <clipPath id="clippath-14">
      <polygon class="cls-3" points="685.14 117.62 159.02 152.19 194.81 674.39 720.92 639.82 685.14 117.62"/>
    </clipPath>
    <clipPath id="clippath-15">
      <polygon class="cls-3" points="685.14 117.62 159.02 152.19 194.81 674.39 720.92 639.82 685.14 117.62"/>
    </clipPath>
  </defs>
  <g id="layer-MC1">
    <path id="rect33" class="cls-6" d="M285.3,299.43l224.6,3.83c34.9.6,91.27,1.18,118.6,7.86,8.63,2.11,57.65,39.99,66.61,57.07,46.74,89.07-18.68,187.94-106.81,177.18-50.74-6.19-221.99,1.35-313.02,1.68-78.79.28-126.55-35.69-137.15-91.49-11.97-63.02-6.03-104.78,68.55-146.54,33.63-18.83,49.06-10.09,78.61-9.59Z"/>
    <g class="cls-1">
      <path id="path21" class="cls-4" d="M138.66,410.46c0,29.11,10.54,55.82,28.02,76.58-12.59-18.05-19.98-39.92-19.98-63.49,0-61.65,50.48-111.8,112.53-111.8h325.31c40.78,0,76.57,21.67,96.31,54.03,15.05,20.52,23.97,45.77,23.97,73.05,0,22.27-5.96,43.18-16.32,61.28,16.01-21.4,25.5-47.9,25.5-76.55,0-70.92-58.07-128.61-129.45-128.61h-325.31c-35.61,0-67.91,14.36-91.34,37.56-18.19,20.95-29.23,48.19-29.23,77.96"/>
    </g>
    <g class="cls-9">
      <path id="path23" class="cls-4" d="M658.45,529.04c25.41-21.93,41.53-54.23,41.53-90.22,0-10.52-1.39-20.73-3.97-30.45.68,4.97,1.06,10.03,1.06,15.18,0,61.65-50.48,111.8-112.53,111.8h-325.31c-10.78,0-21.2-1.55-31.07-4.37-54.15-13.68-94.33-62.52-94.33-120.51,0-11.21,1.53-22.06,4.34-32.39-5.4,14.15-8.39,29.47-8.39,45.48,0,70.92,58.07,128.61,129.45,128.61h325.31c27.46,0,51.32-7.76,73.91-23.11"/>
    </g>
    <g id="g4">
      <g class="cls-12">
        <path id="path3" class="cls-5" d="M635.99,453.51h-176.7c-1.52,0-2.75,2.99-2.75,6.68v2.89h176.7c1.52,0,2.75-2.99,2.75-6.68v-2.89Z"/>
      </g>
      <g class="cls-11">
        <path id="path25" class="cls-4" d="M466.3,453.51h-254.57c-2.19,0-3.96,2.99-3.96,6.68v2.89h254.57c2.19,0,3.96-2.99,3.96-6.68v-2.89Z"/>
      </g>
    </g>
    <g id="g1">
      <g id="g2">
        <g class="cls-10">
          <path id="path5" class="cls-5" d="M458.43,360.96c-10.62,13.11-36.71,9.78-36.71,9.78,0,0-8.88-24.59,1.74-37.69,10.62-13.11,36.71-9.78,36.71-9.78,0,0,8.87,24.59-1.74,37.7"/>
        </g>
        <g class="cls-16">
          <path id="path11" class="cls-7" d="M421.72,370.74l38.45-47.47"/>
        </g>
        <g class="cls-15">
          <path id="path13" class="cls-7" d="M443.73,343.57l20.14-2.15"/>
        </g>
        <g class="cls-13">
          <path id="path15" class="cls-7" d="M443.73,343.57l-2.2-19.98"/>
        </g>
        <g class="cls-14">
          <path id="path17" class="cls-7" d="M430.45,359.96l31.76-3.39"/>
        </g>
        <g class="cls-17">
          <path id="path19" class="cls-7" d="M430.45,359.96l-3.48-31.53"/>
        </g>
      </g>
      <g id="g31">
        <g class="cls-21">
          <path id="path4" class="cls-4" d="M386.2,364.38c9.55,9,29.24,3.79,29.24,3.79,0,0,4.22-19.79-5.33-28.79-9.54-9-29.24-3.79-29.24-3.79,0,0-4.22,19.79,5.33,28.79"/>
        </g>
        <g class="cls-23">
          <path id="path7" class="cls-8" d="M415.44,368.17l-34.57-32.58"/>
        </g>
        <g class="cls-20">
          <path id="path9" class="cls-8" d="M395.66,349.53l-15.7.39"/>
        </g>
        <g class="cls-19">
          <path id="path27" class="cls-8" d="M395.66,349.53l-.42-15.57"/>
        </g>
        <g class="cls-18">
          <path id="path29" class="cls-8" d="M407.59,360.78l-24.76.61"/>
        </g>
        <g class="cls-22">
          <path id="path31" class="cls-8" d="M407.59,360.78l-.66-24.58"/>
        </g>
      </g>
    </g>
    <g id="g34">
      <path id="text3" class="cls-5" d="M225.99,439.52c.27.67.2,1.18-.2,1.54-.4.31-.94.49-1.62.53-.67.04-1.39-.02-2.15-.2-.76-.22-1.35-.53-1.75-.94-.58-.76-1.01-1.54-1.28-2.34-.31-.85-.56-1.72-.74-2.61-.18-1.16-.2-2.36-.07-3.61.09-1.25.29-2.45.61-3.61.27-1.16.61-2.21,1.01-3.14.4-.98.83-1.78,1.28-2.41,1.97-2.81,4.24-5.13,6.8-6.95,2.6-1.83,5.41-3.39,8.41-4.68.67-2.45,1.39-4.86,2.15-7.22.81-2.41,1.62-4.77,2.42-7.09l2.29-7.15c-1.3.27-2.58.56-3.84.87-1.26.27-2.47.58-3.63.94-1.57.53-3.41,1.31-5.52,2.34-2.06,1.03-3.99,2.25-5.79,3.68-1.79,1.38-3.25,2.92-4.37,4.61-1.12,1.65-1.55,3.39-1.28,5.22.22,1.11.74,2.3,1.55,3.54.85,1.2,2.2,2.45,4.04,3.74l.54.74c.36.76.25,1.4-.34,1.94-.58.53-1.48.8-2.69.8-1.12,0-2.42-.2-3.9-.6-1.53-.45-2.85-1.23-3.97-2.34-.85-1.29-1.55-2.47-2.09-3.54-.54-1.11-.92-2.3-1.14-3.54-.09-.76-.13-1.58-.13-2.47-.04-.94,0-1.98.13-3.14.36-3.57,1.57-6.69,3.63-9.36s4.69-4.97,7.87-6.89c3.19-1.92,6.75-3.52,10.7-4.81,3.99-1.29,8.08-2.36,12.25-3.21,4.17-.85,8.28-1.52,12.32-2.01,4.08-.53,7.81-1,11.17-1.4,2.96-.36,5.54-.69,7.74-1,2.24-.36,4.11-.87,5.59-1.54.4.89.67,2.05.81,3.48.13,1.38.16,2.76.07,4.15-.09,1.34-.29,2.52-.61,3.54-.27,1.03-.61,1.58-1.01,1.67l-9.02.8c-3.77.36-7.63.76-11.58,1.2-3.95.4-7.87.91-11.78,1.54.58.45,1.14.91,1.68,1.4.58.49,1.08.98,1.48,1.47.4.45.72.87.94,1.27.22.4.31.71.27.94-.49,2.32-1.12,4.61-1.88,6.89-.72,2.23-1.5,4.48-2.36,6.75,1.88-.4,3.75-.76,5.59-1.07,1.84-.36,3.7-.71,5.59-1.07,1.79-.31,3.59-.65,5.38-1,1.79-.36,3.54-.71,5.25-1.07.45.13.7.74.74,1.81.09,1.03.02,2.14-.2,3.34-.18,1.2-.45,2.32-.81,3.34-.36,1.03-.74,1.56-1.14,1.6l-3.23.2c-2.96.22-6.24.56-9.83,1-3.54.4-7.13,1.05-10.77,1.94-.67,1.83-1.3,3.68-1.88,5.55-.54,1.83-1.01,3.72-1.41,5.68-.36,1.96-.63,3.99-.81,6.08-.13,2.05-.11,4.21.07,6.49.13,1.69.85,2.88,2.15,3.54,1.35.67,2.98,1,4.91,1,1.53,0,3.14-.18,4.85-.53,1.7-.31,3.37-.74,4.98-1.27s3.12-1.11,4.51-1.74c1.44-.67,2.62-1.31,3.57-1.94.94-.71,1.75-.62,2.42.27.72.85,1.19,2.1,1.41,3.74.13.67.2,1.36.2,2.07s-.04,1.38-.13,2.01c-.09.62-.25,1.18-.47,1.67-.22.53-.52.91-.87,1.14-1.93,1.11-4.4,2.05-7.4,2.81-2.96.76-6.03,1.14-9.22,1.14-2.24,0-4.44-.22-6.6-.67-2.11-.45-4.04-1.18-5.79-2.21-1.7-1.03-3.16-2.36-4.37-4.01-1.17-1.6-1.93-3.61-2.29-6.02-.54-3.48-.72-6.93-.54-10.36.18-3.48.58-6.91,1.21-10.3-1.71.89-3.3,1.94-4.78,3.14-1.44,1.16-2.69,2.45-3.77,3.88-.27.36-.54.82-.81,1.4-.22.53-.45,1.16-.67,1.87-.18.67-.31,1.4-.4,2.21-.04.8,0,1.6.13,2.41.09.62.27,1.25.54,1.87.31.62.74,1.18,1.28,1.67l.4.6ZM326.14,430.96c-.49,1.16-1.17,2.56-2.02,4.21-.85,1.65-1.84,3.25-2.96,4.81-1.12,1.56-2.38,2.9-3.77,4.01-1.39,1.07-2.85,1.6-4.37,1.6-.94,0-1.91-.18-2.89-.53-.94-.31-1.82-.82-2.62-1.54-.76-.71-1.44-1.63-2.02-2.74-.54-1.16-.9-2.52-1.08-4.08-.13-1.34-.18-2.65-.13-3.94.09-1.29.22-2.65.4-4.08.22-1.43.52-2.96.87-4.61.36-1.69.79-3.59,1.28-5.68.22-.89.38-1.74.47-2.54.13-.8.16-1.45.07-1.94,0,.09-.18.36-.54.8-.36.45-.94,1.11-1.75,2.01-1.39,1.52-2.65,3.03-3.77,4.55-1.08,1.52-2.11,3.21-3.1,5.08-.22.8-.43,1.6-.61,2.41-.13.8-.27,1.65-.4,2.54v-.13c-.31,2.05-.52,4.12-.61,6.22-.09,2.05-.02,4.17.2,6.35.04.36-.11.58-.47.67-.36.09-.83.09-1.41,0-.54-.09-1.17-.27-1.88-.53-.67-.27-1.32-.58-1.95-.94-.58-.36-1.1-.74-1.55-1.14-.45-.4-.72-.8-.81-1.2-.45-3.74-.45-7.38,0-10.9.45-3.57,1.03-7.11,1.75-10.63.22-1.16.43-2.18.61-3.08.18-.89.34-1.47.47-1.74-.49.27-1.41,1.09-2.76,2.47-1.39,1.56-2.62,3.12-3.7,4.68-1.08,1.52-2.15,3.21-3.23,5.08-.63,2.76-1.08,5.59-1.35,8.49-.27,2.9-.29,5.82-.07,8.76,0,.49-.4.71-1.21.67-.76-.04-1.64-.25-2.62-.6-.94-.4-1.84-.89-2.69-1.47s-1.35-1.16-1.48-1.74c-.22-2.01-.31-3.94-.27-5.82.04-1.92.18-3.79.4-5.62.18-1.87.43-3.7.74-5.48.31-1.83.65-3.66,1.01-5.48.36-2.14.72-4.21,1.08-6.22.36-2.05.65-4.01.87-5.88.45-.27,1.1-.27,1.95,0,.85.22,1.73.6,2.62,1.14.9.53,1.75,1.2,2.56,2.01.81.76,1.41,1.56,1.82,2.41,1.39-1.6,2.89-2.96,4.51-4.08,1.66-1.11,3.43-1.74,5.32-1.87.49,0,1.05.18,1.68.53.67.36,1.3.82,1.88,1.4.63.53,1.19,1.16,1.68,1.87.49.71.87,1.43,1.14,2.14,1.39-1.6,2.89-2.96,4.51-4.08,1.66-1.11,3.45-1.74,5.38-1.87.58,0,1.28.29,2.09.87.85.53,1.62,1.23,2.29,2.07.72.8,1.3,1.67,1.75,2.61.45.94.58,1.76.4,2.47v-.07c-.4,2.45-.83,4.61-1.28,6.49-.45,1.87-.85,3.57-1.21,5.08-.31,1.25-.61,2.41-.87,3.48-.22,1.07-.4,2.12-.54,3.14-.13,1.03-.22,2.07-.27,3.14-.04,1.07-.02,2.21.07,3.41,0-.18.07-.33.2-.47,1.21-.67,2.51-1.81,3.9-3.41,1.44-1.6,2.78-3.79,4.04-6.55.36-.76.7-1.54,1.01-2.34.31-.85.63-1.72.94-2.61l.61-1.47c.31-.58.76-.89,1.35-.94.58-.04,1.14.11,1.68.47.54.31.94.78,1.21,1.4.27.58.27,1.25,0,2.01-.4,1.07-.83,2.14-1.28,3.21-.45,1.07-.87,2.14-1.28,3.21v.07ZM326.88,406.09c.45-.27,1.05-.29,1.82-.07.81.18,1.64.51,2.49,1,.9.49,1.75,1.11,2.56,1.87.81.71,1.44,1.47,1.88,2.27,1.75-1.69,3.66-3.05,5.72-4.08,2.11-1.07,4.22-1.47,6.33-1.2,1.48.22,2.76.65,3.84,1.27s1.97,1.4,2.69,2.34c.76.94,1.35,1.98,1.75,3.14.45,1.11.76,2.3.94,3.54.18,1.03.27,2.07.27,3.14s-.04,1.98-.13,2.88c-.36,2.76-1.08,5.48-2.15,8.16-1.08,2.63-2.42,5.01-4.04,7.15s-3.48,3.92-5.59,5.35c-2.11,1.38-4.33,2.21-6.66,2.47-2.11-.04-3.93-.51-5.45-1.4-1.48-.89-2.67-1.98-3.57-3.28-.09.22-.18.47-.27.74-.04.22-.11.45-.2.67-.58,1.83-1.14,3.74-1.68,5.75-.54,2.01-1.01,4.03-1.41,6.08-.4,2.05-.7,4.12-.87,6.22-.18,2.1-.2,4.15-.07,6.15.04.53-.31.8-1.08.8s-1.62-.2-2.56-.6c-.94-.36-1.84-.82-2.69-1.4-.9-.58-1.44-1.18-1.62-1.81-.27-2.23-.34-4.46-.2-6.69.13-2.18.38-4.37.74-6.55.36-2.18.83-4.37,1.41-6.55.54-2.18,1.12-4.39,1.75-6.62.54-1.87,1.03-3.7,1.48-5.48.45-1.78.87-3.59,1.28-5.42v.2c.22-1.34.47-2.7.74-4.08.22-1.38.47-2.76.74-4.15.36-2.14.72-4.21,1.08-6.22s.61-3.88.74-5.62h0ZM332.19,430.96l-.13.53.2,1.47c.18.98.52,1.87,1.01,2.67.49.76,1.26,1.18,2.29,1.27.99.09,2.02-.22,3.1-.94,1.08-.71,2.11-1.67,3.1-2.88,1.03-1.25,1.97-2.67,2.83-4.28.85-1.6,1.57-3.21,2.15-4.81.63-1.65,1.08-3.25,1.35-4.81s.31-2.92.13-4.08c-.22-1.38-.9-2.1-2.02-2.14-.99-.04-2.02.11-3.1.47-1.03.36-2.06.89-3.1,1.6-1.03.67-2.02,1.47-2.96,2.41-.94.94-1.77,1.96-2.49,3.08-.36,1.65-.76,3.39-1.21,5.22-.4,1.83-.76,3.57-1.08,5.22h-.07ZM376.34,405.36c1.93.36,3.52,1.23,4.78,2.61,1.3,1.38,2.29,2.94,2.96,4.68,1.21,1.2,2.18,2.96,2.89,5.28.09.36.16.71.2,1.07.09.36.18.78.27,1.27.31,1.92.38,3.88.2,5.88-.18,1.96-.56,3.88-1.14,5.75-.58,1.83-1.35,3.59-2.29,5.28-.9,1.65-1.95,3.1-3.16,4.35-1.21,1.2-2.53,2.16-3.97,2.88-1.44.71-2.96,1.07-4.58,1.07-2.92-.04-5.63-1-8.14-2.88-2.51-1.92-4.44-4.81-5.79-8.69-.36-1.03-.63-2.14-.81-3.34-.31-1.92-.34-3.88-.07-5.88.27-2.05.79-4.03,1.55-5.95.72-1.92,1.66-3.72,2.83-5.42,1.17-1.69,2.49-3.14,3.97-4.35,1.48-1.25,3.07-2.18,4.78-2.81,1.75-.67,3.59-.94,5.52-.8h0ZM377.42,423.01c-.4-.13-.74-.45-1.01-.94-.27-.49-.52-1.03-.74-1.6-.18-.62-.34-1.27-.47-1.94-.09-.67-.16-1.25-.2-1.74-.04-.58.04-1.14.27-1.67.27-.58.56-1.07.87-1.47.36-.45.72-.82,1.08-1.14.4-.31.72-.53.94-.67-.18-.09-.52-.13-1.01-.13-.94.09-1.95.49-3.03,1.2-1.08.67-2.04,1.52-2.89,2.54-.81,1.11-1.53,2.36-2.15,3.74-.58,1.34-1.05,2.74-1.41,4.21-.31,1.47-.52,2.94-.61,4.41-.09,1.43-.02,2.76.2,4.01.22,1.69.74,3.12,1.55,4.28.85,1.11,2.04,1.72,3.57,1.81,1.62.09,3.1-.53,4.44-1.87,1.35-1.34,2.47-3.01,3.37-5.01.9-2.01,1.53-4.17,1.88-6.49.36-2.32.38-4.41.07-6.29v-.33c-.36,0-.72.16-1.08.47-.36.27-.7.6-1.01,1s-.56.82-.74,1.27-.27.85-.27,1.2l-1.61,1.14ZM379.1,388.64c.13-.18.36-.11.67.2.31.27.67.67,1.08,1.2.4.49.81,1.09,1.21,1.81.4.67.76,1.31,1.08,1.94.31.62.54,1.2.67,1.74.18.49.2.82.07,1-1.44,1.43-2.76,2.54-3.97,3.34-1.17.8-2.33,1.58-3.5,2.34l-2.29,1.54c-.4.31-.85.45-1.35.4-.45-.09-.85-.29-1.21-.6-.36-.31-.63-.71-.81-1.2-.13-.53-.09-1.11.13-1.74l8.21-11.97ZM418,432.37c-.76,1.52-1.66,3.08-2.69,4.68-.99,1.56-2.13,2.99-3.43,4.28s-2.74,2.34-4.31,3.14c-1.53.8-3.21,1.16-5.05,1.07-1.08-.04-2.04-.29-2.89-.74-.85-.45-1.59-1.03-2.22-1.74-.63-.76-1.14-1.6-1.55-2.54-.4-.94-.67-1.92-.81-2.94-.18-1.47-.18-2.85,0-4.15.18-1.29.45-2.52.81-3.68.4-1.16.87-2.3,1.41-3.41.54-1.11,1.12-2.25,1.75-3.41l1.01-1.87v.07l1.21-2.27c.22-.49.56-.94,1.01-1.34.45-.4,1.26-.78,2.42-1.14-.58.13-1.05.25-1.41.33-.36.04-.67.11-.94.2-.54.13-1.08.27-1.62.4s-1.21.18-2.02.13h-.61c-.76,1.52-1.44,3.01-2.02,4.48-.58,1.43-1.14,2.79-1.68,4.08l-.07-.07c-.09.27-.38.33-.87.2-.49-.13-1.01-.36-1.55-.67-.49-.36-.92-.74-1.28-1.14-.36-.45-.47-.82-.34-1.14v.07l3.23-7.76c-.63-.76-1.01-1.67-1.14-2.74-.22-1.38-.13-2.61.27-3.68.4-1.07.9-2.32,1.48-3.74.22-.58.45-1.23.67-1.94s.43-1.58.61-2.61c.72.36,1.46.74,2.22,1.14.76.36,1.46.8,2.09,1.34.67.49,1.23,1.07,1.68,1.74s.74,1.43.87,2.27c.09.4.11.85.07,1.34,0,.45-.07.98-.2,1.6l-1.82,3.01c-.13.27-.02.31.34.13.4-.22.94-.58,1.62-1.07.72-.49,1.5-1.07,2.36-1.74.85-.67,1.66-1.34,2.42-2.01.81-.67,1.53-1.29,2.15-1.87.63-.58,1.03-1.03,1.21-1.34.27,0,.63.13,1.08.4.49.27.99.58,1.48.94.54.31.99.62,1.35.94.4.27.65.45.74.53.58.76.87,1.67.87,2.74s-.22,2.16-.67,3.41c-.4,1.25-.99,2.59-1.75,4.01-.72,1.38-1.48,2.81-2.29,4.28-.49.8-.96,1.6-1.41,2.41-.45.8-.9,1.63-1.35,2.47-.36.62-.74,1.34-1.14,2.14s-.79,1.63-1.14,2.47c-.31.8-.58,1.6-.81,2.41-.18.8-.22,1.47-.13,2.01,0,.27.27.4.81.4.49.04,1.08-.11,1.75-.47.67-.4,1.37-.94,2.09-1.6.72-.71,1.41-1.54,2.09-2.47.72-.94,1.32-1.96,1.82-3.08h-.07c.67-1.43,1.28-2.83,1.82-4.21.58-1.38,1.05-2.56,1.41-3.54.13-.22.45-.25.94-.07.54.13,1.05.38,1.55.74.54.36.99.78,1.35,1.27.36.45.47.82.34,1.14v-.13l-1.28,3.34-1.75,4.48-.07.07ZM421.03,405.82c.58-.31,1.37-.25,2.36.2,1.03.4,2.02,1.03,2.96,1.87.99.8,1.77,1.76,2.36,2.88.63,1.07.83,2.12.61,3.14.04-.09.02,0-.07.27-.09.27-.22.62-.4,1.07-.13.45-.31.96-.54,1.54-.18.58-.36,1.11-.54,1.6-.4,1.16-.87,2.45-1.41,3.88-.49,1.38-.99,2.81-1.48,4.28-.45,1.43-.9,2.83-1.35,4.21-.45,1.38-.81,2.61-1.08,3.68-.22,1.07-.38,1.94-.47,2.61-.04.62.07.94.34.94h.47c1.3-.45,2.47-1.16,3.5-2.14,1.08-1.03,2.04-2.18,2.89-3.48.9-1.29,1.7-2.65,2.42-4.08.72-1.47,1.41-2.88,2.09-4.21l.74-1.6c.13-.27.45-.31.94-.13.54.13,1.05.4,1.55.8.49.36.9.78,1.21,1.27.36.45.45.82.27,1.14l.07-.13c-1.3,2.9-2.87,5.84-4.71,8.83-1.79,2.99-3.72,5.62-5.79,7.89-.36.31-.79.69-1.28,1.14-.49.4-1.08.78-1.75,1.14-.63.36-1.32.65-2.09.87-.76.27-1.57.4-2.42.4-1.79-.04-3.21-.71-4.24-2.01-1.03-1.34-1.7-2.99-2.02-4.95-.09-.71-.13-1.45-.13-2.21-.04-.76-.02-1.54.07-2.34v.07c.22-2.23.7-4.81,1.41-7.76.72-2.94,1.48-5.88,2.29-8.83.49-2.01.99-3.94,1.48-5.82.49-1.92.87-3.66,1.14-5.22l.61-.8ZM424.53,385.36c.36-.04.81.09,1.35.4.58.27,1.19.67,1.82,1.2.67.49,1.32,1.07,1.95,1.74.67.62,1.26,1.25,1.75,1.87.54.58.96,1.14,1.28,1.67.36.49.56.87.61,1.14-.04,1.29-.22,2.43-.54,3.41-.27.98-.56,1.98-.87,3.01-.31,1.03-.63,2.07-.94,3.14-.27,1.07-.47,2.32-.61,3.74-.58-.13-1.28-.45-2.09-.94-.76-.53-1.5-1.14-2.22-1.81-.67-.67-1.28-1.36-1.82-2.07-.49-.71-.79-1.31-.87-1.81-.09-.89-.11-1.87-.07-2.94.04-1.07.11-2.18.2-3.34.13-1.16.22-2.34.27-3.54.04-1.2.02-2.36-.07-3.48l.87-1.4ZM451.99,405.36c1.93.36,3.52,1.23,4.78,2.61,1.3,1.38,2.29,2.94,2.96,4.68,1.21,1.2,2.18,2.96,2.89,5.28.09.36.16.71.2,1.07.09.36.18.78.27,1.27.31,1.92.38,3.88.2,5.88-.18,1.96-.56,3.88-1.14,5.75-.58,1.83-1.35,3.59-2.29,5.28-.9,1.65-1.95,3.1-3.16,4.35-1.21,1.2-2.53,2.16-3.97,2.88-1.44.71-2.96,1.07-4.58,1.07-2.92-.04-5.63-1-8.14-2.88-2.51-1.92-4.44-4.81-5.79-8.69-.36-1.03-.63-2.14-.81-3.34-.31-1.92-.34-3.88-.07-5.88.27-2.05.79-4.03,1.55-5.95.72-1.92,1.66-3.72,2.83-5.42,1.17-1.69,2.49-3.14,3.97-4.35,1.48-1.25,3.07-2.18,4.78-2.81,1.75-.67,3.59-.94,5.52-.8h0ZM453.07,423.01c-.4-.13-.74-.45-1.01-.94-.27-.49-.52-1.03-.74-1.6-.18-.62-.34-1.27-.47-1.94-.09-.67-.16-1.25-.2-1.74-.04-.58.04-1.14.27-1.67.27-.58.56-1.07.87-1.47.36-.45.72-.82,1.08-1.14.4-.31.72-.53.94-.67-.18-.09-.52-.13-1.01-.13-.94.09-1.95.49-3.03,1.2-1.08.67-2.04,1.52-2.89,2.54-.81,1.11-1.53,2.36-2.15,3.74-.58,1.34-1.05,2.74-1.41,4.21-.31,1.47-.52,2.94-.61,4.41-.09,1.43-.02,2.76.2,4.01.22,1.69.74,3.12,1.55,4.28.85,1.11,2.04,1.72,3.57,1.81,1.62.09,3.1-.53,4.44-1.87,1.35-1.34,2.47-3.01,3.37-5.01.9-2.01,1.53-4.17,1.88-6.49.36-2.32.38-4.41.07-6.29v-.33c-.36,0-.72.16-1.08.47-.36.27-.7.6-1.01,1s-.56.82-.74,1.27-.27.85-.27,1.2l-1.61,1.14Z"/>
      <path id="text5" class="cls-4" d="M524.04,384.17c.09,2.18-.15,4.47-.72,6.86-.48,2.3-1.17,5.22-2.07,8.77,1.34-2.14,2.95-4.63,4.84-7.46,1.98-2.93,4.06-5.67,6.24-8.23,2.28-2.56,4.52-4.74,6.74-6.54,2.21-1.8,4.22-2.74,6.03-2.81,2.66-.11,4.84.61,6.52,2.15,1.68,1.54,2.58,3.64,2.69,6.3.13,3.03-.2,6.6-.99,10.72-.78,4.11-1.71,8.23-2.78,12.36-1.07,4.03-2.11,7.77-3.11,11.23-.91,3.45-1.51,6.04-1.82,7.76-.37,2.48-.67,4.63-.88,6.44-.21,1.72-.29,3.24-.24,4.57.09,2.08.39,3.54.9,4.38.61.92,1.21,1.52,1.79,1.78.68.26,1.25.33,1.72.21.57-.02.86.11.87.39,0,.09-.32.2-.99.33-.56.21-1.32.39-2.27.52-.94.23-1.98.41-3.12.55s-2.18.23-3.14.27c-3.62.15-6.36-.5-8.23-1.94-1.87-1.44-2.88-3.96-3.03-7.56-.11-2.75.23-5.85,1.05-9.3.81-3.45,1.76-7,2.85-10.65,1.18-3.75,2.4-7.55,3.68-11.4s2.36-7.59,3.25-11.24c.08-.48.19-1.19.34-2.15.24-1.05.39-2.1.44-3.15.05-1.05-.13-1.94-.54-2.68-.32-.84-1-1.24-2.05-1.2-.67.03-1.59.63-2.78,1.82-1.19,1.09-2.52,2.52-3.97,4.29-1.36,1.76-2.8,3.77-4.33,6.01-1.44,2.15-2.78,4.29-4.02,6.43-1.25,2.04-2.36,3.94-3.34,5.69-.88,1.74-1.44,3.1-1.69,4.06-.67,2.21-1.24,4.61-1.7,7.19-.47,2.49-.89,5.07-1.25,7.74-.37,2.67-.64,5.29-.82,7.86-.08,2.57-.08,4.94,0,7.12.12,2.84.45,5.15,1,6.93.55,1.88,1.36,2.89,2.41,3.03.49.26.73.44.74.54.01.28-.31.53-.97.75-.56.31-1.27.53-2.12.66-.85.22-1.75.36-2.7.4-.95.13-1.8.22-2.56.25-4,.16-6.98-.47-8.95-1.91-1.87-1.35-2.88-4.01-3.05-7.99-.13-3.22.23-7.03,1.1-11.43.87-4.4,1.97-8.95,3.3-13.66,1.33-4.7,2.67-9.32,4-13.83,1.34-4.52,2.46-8.59,3.35-12.24.08-.38.19-1.05.35-2.01.15-.96.21-1.91.17-2.85.05-1.05-.08-1.89-.39-2.55-.32-.75-.95-1.1-1.9-1.06-.76.03-1.92.79-3.48,2.28-1.46,1.48-3.01,3.21-4.65,5.17-1.64,1.87-3.09,3.73-4.34,5.59-1.26,1.85-1.97,3.12-2.13,3.79-1.33,4.7-2.5,8.69-3.51,11.96-1.01,3.17-1.85,5.91-2.52,8.22-.67,2.21-1.16,4.18-1.47,5.9-.31,1.63-.44,3.2-.38,4.71.1,2.46.42,4.35.95,5.66.62,1.21,1.28,2.13,1.97,2.77s1.28,1.04,1.77,1.21c.58.17.87.3.87.39.02.38-1.01.9-3.08,1.55-1.97.74-4.24,1.17-6.81,1.27-1.33.05-2.67-.03-4.02-.26-1.34-.23-2.55-.65-3.63-1.28-1.07-.53-2.01-1.34-2.82-2.45-.71-1.11-1.11-2.52-1.18-4.22-.06-1.42.33-3.53,1.17-6.31.83-2.88,1.89-6.1,3.17-9.67,1.28-3.66,2.64-7.56,4.09-11.7,1.45-4.14,2.81-8.13,4.08-11.98,1.27-3.94,2.31-7.64,3.12-11.09.81-3.45,1.17-6.31,1.07-8.59-.04-.85-.29-1.36-.78-1.53-.76.03-1.96.93-3.61,2.71-1.55,1.68-3.13,3.83-4.74,6.46-1.61,2.53-3.02,5.34-4.23,8.43-1.12,2.99-1.62,5.76-1.51,8.32.05,1.33.24,2.41.56,3.25.08-.38.23-1.24.47-2.58.23-1.34.46-2.68.69-4.01.32-1.44.65-2.68.99-3.74.43-1.16.88-1.74,1.36-1.76.29-.01.48.12.59.4,0,0-.04.1-.13.29-.28.2-.53,1.02-.76,2.45-.14,1.33-.26,2.86-.38,4.57-.12,1.62-.2,3.19-.23,4.71-.04,1.43-.05,2.33-.03,2.71l.03.71c0,.19-.37.39-1.12.62-.66.22-1.51.35-2.56.39-1.33.05-2.67.01-4.01-.12-1.44-.23-2.69-.6-3.76-1.13-1.17-.62-2.11-1.43-2.82-2.45-.8-1.01-1.24-2.32-1.31-3.93-.12-2.94.74-6.2,2.6-9.79,1.76-3.58,4.05-6.95,6.88-10.1,2.82-3.25,5.9-5.98,9.24-8.21,3.44-2.23,6.63-3.4,9.58-3.52,2.19-.09,4.01.17,5.47.77,1.46.6,2.58,1.41,3.39,2.42.8.92,1.37,1.94,1.7,3.06.33,1.03.46,1.93.4,2.69.06,1.52-.19,3.42-.76,5.73-.48,2.2-1.04,4.74-1.69,7.61,1.44-1.96,2.98-3.92,4.62-5.88,1.73-2.06,3.41-3.89,5.06-5.47,1.65-1.68,3.26-3.03,4.84-4.04,1.67-1.02,3.22-1.56,4.65-1.61,2.76-.11,4.93.56,6.52,2.01,1.68,1.36,2.57,3.41,2.69,6.15h0ZM559.63,376.59c-.44-3.78.57-7,3.03-9.66,2.46-2.76,5.74-4.22,9.83-4.39,3.43-.14,7.31.46,11.66,1.8,4.35,1.34,8.89,2.96,13.64,4.85,4.85,1.89,9.79,3.78,14.82,5.66,5.13,1.78,10.14,3.1,15.04,3.94,1.44.13,2.91-.02,4.41-.47s2.44-.86,2.81-1.25c.48-.02.74.68.8,2.1.02.57-.03,1.47-.17,2.71-.05,1.14-.33,2.34-.85,3.59-.43,1.16-1.19,2.23-2.3,3.23-1.11.9-2.66,1.39-4.66,1.47-2.47.1-5.01-.08-7.6-.54-2.5-.56-4.95-1.08-7.36-1.55,1.36.51,2.47,1.04,3.35,1.57.98.53,1.47.94,1.48,1.22-.75.32-1.5.68-2.24,1.09-.65.41-1.3.95-1.93,1.65-.55.59-1.04,1.42-1.47,2.48-1.65,3.96-2.95,8.28-3.9,12.97-.86,4.59-1.72,9.23-2.57,13.91-.76,4.59-1.58,9.03-2.45,13.34-.87,4.31-2.14,8.11-3.82,11.4-1.58,3.39-3.66,6.08-6.24,8.09-2.49,2.09-5.78,3.23-9.87,3.39-3.81.16-7.21-.32-10.21-1.43-2.91-1.12-5.4-2.67-7.49-4.68-1.99-1.91-3.46-4.18-4.43-6.79-.96-2.52-1.31-5.12-1.04-7.79.02-1.8.32-3.71.91-5.73.68-2.02,1.56-3.86,2.63-5.52,1.17-1.66,2.64-3.05,4.4-4.17,1.76-1.21,3.78-1.86,6.07-1.96,1.62-.07,3.49.24,5.61.91s4.33,2.05,6.61,4.14c0,.09-.04.19-.13.29,0,.09-.54.69-1.64,1.78-1.01.99-2.15,2.18-3.43,3.56-1.18,1.38-2.31,2.85-3.39,4.41-.98,1.56-1.45,2.91-1.41,4.04l.15.28c-.09.1-.23.15-.42.16-.19,0-.3-.23-.31-.7-.02-.38-.03-.66-.04-.85,0-.19.02-.67.08-1.43.16-.77.36-1.63.61-2.59.34-.96.69-1.83,1.04-2.6.44-.87.94-1.46,1.5-1.77-1.28,1.29-2.4,2.95-3.37,4.98-.35.87-.64,1.83-.88,2.88-.25.86-.45,1.82-.6,2.87s-.2,2.14-.15,3.28c.04,1.04.23,2.08.56,3.11.33,1.03.84,1.96,1.55,2.78.7.83,1.64,1.5,2.8,2.02,1.26.52,2.8.74,4.6.67,2.38-.1,4.28-1.41,5.7-3.93,1.42-2.43,2.53-5.61,3.32-9.53.79-3.83,1.38-8.12,1.75-12.88.37-4.76.66-9.47.85-14.13.19-4.66.39-8.94.61-12.84.22-4,.61-7.19,1.18-9.59.41-1.63,1.37-2.71,2.87-3.25,1.6-.54,3.02-.84,4.25-.89.48-.02.86.01,1.15.1.29-.01.52-.02.71-.03-3.37-.91-6.66-1.91-9.85-3.01-3.1-1.11-5.96-2.22-8.58-3.35-3.88-1.55-6.97-2.61-9.28-3.18s-4.13-.83-5.47-.77c-1.24.05-2.12.51-2.66,1.39-.54.88-.35,1.87.55,2.97,1.31,1.65,2.84,3.06,4.61,4.22,1.86,1.16,3.66,2.08,5.41,2.77,1.84.68,3.43,1.19,4.78,1.51,1.44.32,2.4.52,2.88.59.39.17.68.35.88.53.29.08.45.5.48,1.26.03.66-.48,1.11-1.52,1.34-1.04.14-2.33.19-3.85.16-1.44-.13-2.97-.31-4.6-.52-1.54-.32-2.79-.65-3.76-.99-1.26-.42-2.76-.93-4.5-1.52-1.65-.6-3.3-1.43-4.97-2.5-1.57-1.07-3.01-2.44-4.32-4.09-1.22-1.75-1.98-3.95-2.28-6.6h0Z"/>
    </g>
    <path id="text34" class="cls-2" d="M227.54,493.97h2.34v-5.18h2.65c2.89,0,5.25-2.17,5.25-4.83s-2.36-4.93-5.25-4.93h-5v14.94ZM232.53,486.47h-2.65v-5.12h2.65c1.6,0,2.91,1.16,2.91,2.59s-1.31,2.54-2.91,2.53h0ZM251.93,493.97l-4.35-5.98c1.71-.56,2.96-2.23,2.96-4.16,0-2.66-2.28-4.8-5.06-4.8h-4.64v14.94h2.35v-5.78h1.83l4.02,5.78h2.88ZM243.19,486.24v-4.88h2.35c1.39,0,2.59,1.03,2.59,2.42s-1.18,2.47-2.59,2.47h-2.35ZM261.7,494.21c4.25,0,7.74-3.47,7.74-7.69s-3.48-7.75-7.73-7.75-7.72,3.48-7.72,7.75,3.47,7.69,7.71,7.69ZM261.7,491.84c-2.95,0-5.35-2.4-5.35-5.34s2.4-5.37,5.35-5.37,5.37,2.41,5.37,5.37-2.42,5.34-5.37,5.34ZM277.04,479.03h-4.25v14.94h4.25c4.74,0,7.7-2.86,7.7-7.45s-2.96-7.5-7.7-7.49ZM277.06,491.63h-1.94v-10.28h1.91c3.28,0,5.34,1.98,5.34,5.15s-2.05,5.12-5.31,5.12ZM293.59,494.25c3.18,0,5.65-2.51,5.65-5.94v-9.28h-2.36v9.27c0,2.07-1.47,3.58-3.3,3.58s-3.28-1.51-3.28-3.58v-9.27h-2.35v9.28c0,3.43,2.47,5.94,5.64,5.94ZM312.52,479.03h-10.36v2.33h4v12.61h2.35v-12.61h4v-2.33ZM321.83,494.21c4.25,0,7.74-3.47,7.74-7.69s-3.48-7.75-7.73-7.75-7.72,3.48-7.72,7.75,3.47,7.69,7.71,7.69h0ZM321.83,491.84c-2.95,0-5.35-2.4-5.35-5.34s2.4-5.37,5.35-5.37,5.37,2.41,5.37,5.37-2.42,5.34-5.37,5.34ZM337.22,494.22c3.03,0,5.33-1.71,5.33-4.36,0-2.35-1.83-3.49-4.2-4.53-1.82-.78-3.2-1.2-3.2-2.36,0-1.06,1.09-1.91,2.47-1.91,1.08,0,2.11.57,2.58,1.58l1.74-1.2c-.61-1.64-2.21-2.67-4.34-2.67-2.69,0-4.81,1.71-4.81,4.15s1.95,3.25,3.7,4.03c1.74.75,3.71,1.58,3.71,2.97,0,1.14-1.27,1.95-2.95,1.95-1.44,0-2.68-.67-3.35-1.83l-1.85,1.33c.85,1.72,2.72,2.87,5.17,2.87ZM362.7,479.03l-4.47,10.11-4.45-10.11h-2.49l6.87,15.24h.16l6.89-15.24h-2.51ZM376.96,481.34v-2.31h-8.9v14.94h8.9v-2.34h-6.55v-4.13h5.65v-2.34h-5.65v-3.83h6.55ZM394.71,485.81h-7.07v2.15h4.62v.05c0,2.28-1.93,3.85-4.49,3.85-3.19,0-5.51-2.41-5.51-5.34,0-3.1,2.58-5.38,5.3-5.38,1.42,0,2.99.72,4.16,1.87l1.31-1.95c-1.41-1.37-3.56-2.28-5.44-2.29-4.24,0-7.71,3.49-7.71,7.74s3.45,7.7,7.79,7.7c3.88,0,7.11-2.8,7.11-7.24,0-.42-.03-.82-.06-1.17h0ZM407.18,493.97h2.54l-7.02-15.24h-.14l-7.02,15.24h2.54l1.02-2.27h7.07l1.02,2.27ZM400,489.69l2.63-5.84,2.62,5.84h-5.25ZM422.23,478.99v9.74l-9.54-9.96h-.12v15.22h2.34v-9.74l9.55,9.98h.11v-15.24h-2.35ZM435.65,494.21c4.25,0,7.74-3.47,7.74-7.69s-3.48-7.75-7.73-7.75-7.72,3.48-7.72,7.75,3.47,7.69,7.71,7.69h0ZM435.65,491.84c-2.95,0-5.35-2.4-5.35-5.34s2.4-5.37,5.35-5.37,5.37,2.41,5.37,5.37-2.42,5.34-5.37,5.34ZM451.04,494.22c3.03,0,5.33-1.71,5.33-4.36,0-2.35-1.83-3.49-4.2-4.53-1.82-.78-3.2-1.2-3.2-2.36,0-1.06,1.09-1.91,2.47-1.91,1.08,0,2.11.57,2.58,1.58l1.74-1.2c-.61-1.64-2.21-2.67-4.34-2.67-2.69,0-4.81,1.71-4.81,4.15s1.95,3.25,3.7,4.03c1.74.75,3.71,1.58,3.71,2.97,0,1.14-1.27,1.95-2.95,1.95-1.44,0-2.68-.67-3.35-1.83l-1.85,1.33c.85,1.72,2.72,2.87,5.17,2.87ZM478.79,491.92c-.69,0-1.61-.42-2.63-1.1.58-1.17.94-2.63.97-4.35l-2.21.03c-.05,1.09-.26,2.08-.62,2.88-2.44-2.14-4.75-5.14-4.75-6.88,0-.95.7-1.68,1.56-1.68s1.58.7,1.7,1.61l2.27-.43c-.28-1.79-1.87-3.35-3.89-3.35-2.23,0-3.95,1.91-3.95,3.76,0,.83.34,1.82.91,2.86-1.33.78-2.52,2.5-2.52,4.31,0,2.21,1.72,4.66,5.11,4.66,1.67,0,3.13-.6,4.24-1.72,1.43.95,2.79,1.56,3.82,1.57v-2.18ZM470.6,491.96c-1.81,0-2.76-1.09-2.76-2.51,0-.97.52-1.81,1.41-2.44,1.05,1.44,2.41,2.87,3.83,4.08-.67.57-1.5.87-2.47.87ZM495.59,494.21c4.25,0,7.74-3.47,7.74-7.69s-3.48-7.75-7.73-7.75-7.72,3.48-7.72,7.75,3.47,7.69,7.71,7.69ZM495.59,491.84c-2.95,0-5.35-2.4-5.35-5.34s2.4-5.37,5.35-5.37,5.37,2.41,5.37,5.37-2.42,5.34-5.37,5.34ZM517.77,493.97l-4.35-5.98c1.71-.56,2.96-2.23,2.96-4.16,0-2.66-2.28-4.8-5.06-4.8h-4.64v14.94h2.35v-5.78h1.83l4.02,5.78h2.88ZM509.02,486.24v-4.88h2.35c1.39,0,2.59,1.03,2.59,2.42s-1.18,2.47-2.59,2.47h-2.35ZM534.66,485.81h-7.07v2.15h4.62v.05c0,2.28-1.93,3.85-4.49,3.85-3.19,0-5.51-2.41-5.51-5.34,0-3.1,2.58-5.38,5.3-5.38,1.42,0,2.99.72,4.16,1.87l1.31-1.95c-1.41-1.37-3.56-2.28-5.44-2.29-4.24,0-7.71,3.49-7.71,7.74s3.45,7.7,7.79,7.7c3.88,0,7.11-2.8,7.11-7.24,0-.42-.03-.82-.06-1.17h0ZM543.95,476.06l1.69,1.59h1.91l-2.94-2.71h-1.32l-2.91,2.71h1.89l1.68-1.59ZM548.51,493.97h2.54l-7.02-15.24h-.14l-7.02,15.24h2.54l1.02-2.27h7.07l1.02,2.27ZM541.32,489.69l2.63-5.84,2.62,5.84h-5.25ZM563.55,478.99v9.74l-9.54-9.96h-.12v15.22h2.34v-9.74l9.55,9.98h.11v-15.24h-2.35ZM569.97,493.97h2.34v-14.94h-2.34v14.94ZM583.42,494.21c2.22,0,3.86-.97,5.15-2.24l-1.35-1.89c-1.03,1.02-2.34,1.78-3.87,1.78-2.68,0-5.3-2.33-5.3-5.34s2.59-5.37,5.29-5.37c1.46,0,2.83.7,3.87,1.74l1.36-1.84c-1.46-1.43-3.25-2.25-5.19-2.28-4.2,0-7.71,3.53-7.71,7.74s3.51,7.7,7.75,7.7h0ZM597.99,494.21c4.25,0,7.74-3.47,7.74-7.69s-3.48-7.75-7.73-7.75-7.72,3.48-7.72,7.75,3.47,7.69,7.71,7.69h0ZM597.99,491.84c-2.95,0-5.35-2.4-5.35-5.34s2.4-5.37,5.35-5.37,5.37,2.41,5.37,5.37-2.42,5.34-5.37,5.34ZM613.38,494.22c3.03,0,5.33-1.71,5.33-4.36,0-2.35-1.83-3.49-4.2-4.53-1.82-.78-3.2-1.2-3.2-2.36,0-1.06,1.09-1.91,2.47-1.91,1.08,0,2.11.57,2.58,1.58l1.74-1.2c-.61-1.64-2.21-2.67-4.34-2.67-2.69,0-4.81,1.71-4.81,4.15s1.95,3.25,3.7,4.03c1.74.75,3.71,1.58,3.71,2.97,0,1.14-1.27,1.95-2.95,1.95-1.44,0-2.68-.67-3.35-1.83l-1.85,1.33c.85,1.72,2.72,2.87,5.17,2.87h0Z"/>
  </g>
</svg>