<?xml version="1.0" standalone="no"?>
<svg xmlns:xlink="http://www.w3.org/1999/xlink" id="wave" style="transform:rotate(180deg); transition: 0.3s" viewBox="0 0 1440 100" version="1.1" xmlns="http://www.w3.org/2000/svg"><defs><linearGradient id="sw-gradient-0" x1="0" x2="0" y1="1" y2="0"><stop stop-color="rgba(82, 120, 83, 1)" offset="0%"/><stop stop-color="rgba(82, 120, 83, 1)" offset="100%"/></linearGradient></defs><path style="transform:translate(0, 0px); opacity:1" fill="url(#sw-gradient-0)" d="M0,0L17.1,1.7C34.3,3,69,7,103,21.7C137.1,37,171,63,206,61.7C240,60,274,30,309,25C342.9,20,377,40,411,41.7C445.7,43,480,27,514,16.7C548.6,7,583,3,617,3.3C651.4,3,686,7,720,13.3C754.3,20,789,30,823,41.7C857.1,53,891,67,926,68.3C960,70,994,60,1029,46.7C1062.9,33,1097,17,1131,15C1165.7,13,1200,27,1234,36.7C1268.6,47,1303,53,1337,60C1371.4,67,1406,73,1440,70C1474.3,67,1509,53,1543,55C1577.1,57,1611,73,1646,73.3C1680,73,1714,57,1749,45C1782.9,33,1817,27,1851,26.7C1885.7,27,1920,33,1954,33.3C1988.6,33,2023,27,2057,28.3C2091.4,30,2126,40,2160,50C2194.3,60,2229,70,2263,75C2297.1,80,2331,80,2366,68.3C2400,57,2434,33,2451,21.7L2468.6,10L2468.6,100L2451.4,100C2434.3,100,2400,100,2366,100C2331.4,100,2297,100,2263,100C2228.6,100,2194,100,2160,100C2125.7,100,2091,100,2057,100C2022.9,100,1989,100,1954,100C1920,100,1886,100,1851,100C1817.1,100,1783,100,1749,100C1714.3,100,1680,100,1646,100C1611.4,100,1577,100,1543,100C1508.6,100,1474,100,1440,100C1405.7,100,1371,100,1337,100C1302.9,100,1269,100,1234,100C1200,100,1166,100,1131,100C1097.1,100,1063,100,1029,100C994.3,100,960,100,926,100C891.4,100,857,100,823,100C788.6,100,754,100,720,100C685.7,100,651,100,617,100C582.9,100,549,100,514,100C480,100,446,100,411,100C377.1,100,343,100,309,100C274.3,100,240,100,206,100C171.4,100,137,100,103,100C68.6,100,34,100,17,100L0,100Z"/></svg>